{
  "accessors": [
    {
      "bufferView": 2,
      "componentType": 5126,
      "count": 9969,
      "max": [
        17.145000457763672,
        44.39925765991211,
        13.045313835144043
      ],
      "min": [
        -15.265582084655762,
        40.71967697143555,
        -0.6393139958381653
      ],
      "type": "VEC3"
    },
    {
      "bufferView": 2,
      "byteOffset": 119628,
      "componentType": 5126,
      "count": 9969,
      "max": [
        1.0,
        1.0,
        1.0
      ],
      "min": [
        -1.0,
        -1.0,
        -1.0
      ],
      "type": "VEC3"
    },
    {
      "bufferView": 3,
      "componentType": 5126,
      "count": 9969,
      "max": [
        1.0,
        1.0,
        1.0,
        1.0
      ],
      "min": [
        -1.0,
        -1.0,
        -1.0,
        -1.0
      ],
      "type": "VEC4"
    },
    {
      "bufferView": 1,
      "componentType": 5126,
      "count": 9969,
      "max": [
        0.9963459968566895,
        0.9971789717674255
      ],
      "min": [
        0.002460000105202198,
        0.0038530000019818544
      ],
      "type": "VEC2"
    },
    {
      "bufferView": 0,
      "componentType": 5125,
      "count": 35628,
      "type": "SCALAR"
    },
    {
      "bufferView": 2,
      "byteOffset": 239256,
      "componentType": 5126,
      "count": 1892,
      "max": [
        16.927522659301758,
        44.05073928833008,
        12.411836624145508
      ],
      "min": [
        -15.324240684509277,
        41.28434371948242,
        -1.5723170042037964
      ],
      "type": "VEC3"
    },
    {
      "bufferView": 2,
      "byteOffset": 261960,
      "componentType": 5126,
      "count": 1892,
      "max": [
        1.0,
        1.0,
        1.0
      ],
      "min": [
        -0.9999284744262695,
        -1.0,
        -1.0
      ],
      "type": "VEC3"
    },
    {
      "bufferView": 3,
      "byteOffset": 159504,
      "componentType": 5126,
      "count": 1892,
      "max": [
        1.0,
        0.9999037981033325,
        0.9998927712440491,
        1.0
      ],
      "min": [
        -0.99909907579422,
        -0.9999962449073792,
        -0.9997104406356812,
        -1.0
      ],
      "type": "VEC4"
    },
    {
      "bufferView": 1,
      "byteOffset": 79752,
      "componentType": 5126,
      "count": 1892,
      "max": [
        0.9571359753608704,
        0.7729030251502991
      ],
      "min": [
        0.0030400000978261232,
        0.002739999908953905
      ],
      "type": "VEC2"
    },
    {
      "bufferView": 0,
      "byteOffset": 142512,
      "componentType": 5125,
      "count": 7155,
      "type": "SCALAR"
    }
  ],
  "asset": {
    "extras": {
      "author": "kajindd (https://sketchfab.com/kajindd)",
      "license": "CC-BY-4.0 (http://creativecommons.org/licenses/by/4.0/)",
      "source": "https://sketchfab.com/3d-models/revolver-westwood-eldorado-b13b61a5b4094b2ab7a9d998ef4c1788",
      "title": "Revolver Westwood ElDorado"
    },
    "generator": "Sketchfab-10.72.0",
    "version": "2.0"
  },
  "bufferViews": [
    {
      "buffer": 0,
      "byteLength": 171132,
      "name": "floatBufferViews",
      "target": 34963
    },
    {
      "buffer": 0,
      "byteLength": 94888,
      "byteOffset": 171132,
      "byteStride": 8,
      "name": "floatBufferViews",
      "target": 34962
    },
    {
      "buffer": 0,
      "byteLength": 284664,
      "byteOffset": 266020,
      "byteStride": 12,
      "name": "floatBufferViews",
      "target": 34962
    },
    {
      "buffer": 0,
      "byteLength": 189776,
      "byteOffset": 550684,
      "byteStride": 16,
      "name": "floatBufferViews",
      "target": 34962
    }
  ],
  "buffers": [
    {
      "byteLength": 740460,
      "uri": "scene.bin"
    }
  ],
  "images": [
    {
      "uri": "textures/lambert12SG_baseColor.png"
    },
    {
      "uri": "textures/lambert12SG_metallicRoughness.png"
    },
    {
      "uri": "textures/lambert12SG_normal.png"
    }
  ],
  "materials": [
    {
      "doubleSided": true,
      "name": "lambert12SG",
      "normalTexture": {
        "index": 2
      },
      "pbrMetallicRoughness": {
        "baseColorTexture": {
          "index": 0
        },
        "metallicRoughnessTexture": {
          "index": 1
        },
        "roughnessFactor": 0.634048057688683
      }
    }
  ],
  "meshes": [
    {
      "name": "Object_0",
      "primitives": [
        {
          "attributes": {
            "NORMAL": 1,
            "POSITION": 0,
            "TANGENT": 2,
            "TEXCOORD_0": 3
          },
          "indices": 4,
          "material": 0,
          "mode": 4
        }
      ]
    },
    {
      "name": "Object_1",
      "primitives": [
        {
          "attributes": {
            "NORMAL": 6,
            "POSITION": 5,
            "TANGENT": 7,
            "TEXCOORD_0": 8
          },
          "indices": 9,
          "material": 0,
          "mode": 4
        }
      ]
    }
  ],
  "nodes": [
    {
      "children": [
        1
      ],
      "matrix": [
        1.0,
        0.0,
        0.0,
        0.0,
        0.0,
        2.220446049250313e-16,
        -1.0,
        0.0,
        0.0,
        1.0,
        2.220446049250313e-16,
        0.0,
        0.0,
        0.0,
        0.0,
        1.0
      ],
      "name": "Sketchfab_model"
    },
    {
      "children": [
        2,
        3
      ],
      "name": "revolvereldorado.obj.cleaner.materialmerger.gles"
    },
    {
      "mesh": 0,
      "name": "Object_2"
    },
    {
      "mesh": 1,
      "name": "Object_3"
    }
  ],
  "samplers": [
    {
      "magFilter": 9729,
      "minFilter": 9987,
      "wrapS": 10497,
      "wrapT": 10497
    }
  ],
  "scene": 0,
  "scenes": [
    {
      "name": "Sketchfab_Scene",
      "nodes": [
        0
      ]
    }
  ],
  "textures": [
    {
      "sampler": 0,
      "source": 0
    },
    {
      "sampler": 0,
      "source": 1
    },
    {
      "sampler": 0,
      "source": 2
    }
  ]
}
